<svg version="1.1" id="Layer_1" xmlns="http://www.w3.org/2000/svg" xmlns:xlink="http://www.w3.org/1999/xlink" x="0px" y="0px"
	   width="197px" height="50px" viewBox="0 0 197 50" enable-background="new 0 0 197 50" xml:space="preserve">
	<path fill="#237c8a" d="M3.724,0.536h3.988l4.986,14.884l5.031-14.884h3.986l3.608,21.34h-3.959L19.059,8.399L14.49,21.876h-3.608
		L6.353,8.399L3.992,21.876H0L3.724,0.536z"/>
	<path fill="#237c8a" d="M28.292,0.536h4.065v21.34h-4.065V0.536z"/>
	<path fill="#237c8a" d="M34.843,0.536h11.887V4.54h-3.918v17.336h-4.153V4.54h-3.816V0.536z"/>
	<path fill="#237c8a" d="M49.003,0.536H60.89V4.54h-3.918v17.336h-4.152V4.54h-3.816V0.536z"/>
	<path fill="#237c8a" d="M63.712,0.536h11.741v3.975h-7.676V8.37h7.676v3.902h-7.676v5.614h7.676v3.99H63.712V0.536z"/>
	<path fill="#237c8a" d="M79.284,0.536h3.927l9.203,14.043V0.536h4.094v21.34h-3.938L83.378,7.877v13.999h-4.094V0.536z"/>
	<path fill="#237c8a" d="M129.567,4.287l-2.864,2.708c-1.947-2.043-4.139-3.064-6.574-3.064c-2.055,0-3.786,0.697-5.193,2.091
		c-1.408,1.394-2.111,3.113-2.111,5.155c0,1.423,0.312,2.687,0.935,3.791c0.624,1.104,1.505,1.97,2.645,2.599
		c1.139,0.629,2.406,0.944,3.798,0.944c1.188,0,2.273-0.22,3.257-0.661s2.065-1.241,3.243-2.403l2.775,2.874
		c-1.589,1.539-3.09,2.605-4.502,3.2c-1.414,0.595-3.027,0.893-4.84,0.893c-3.344,0-6.081-1.052-8.21-3.156
		c-2.129-2.104-3.194-4.799-3.194-8.088c0-2.127,0.485-4.018,1.455-5.672c0.97-1.654,2.358-2.984,4.167-3.99
		C116.161,0.502,118.108,0,120.194,0c1.774,0,3.482,0.372,5.125,1.115C126.961,1.858,128.377,2.916,129.567,4.287z"/>
	<path fill="#237c8a" d="M133.427,0.536h4.337c2.375,0,4.067,0.21,5.075,0.631c1.008,0.421,1.818,1.12,2.432,2.097
		c0.613,0.977,0.92,2.133,0.92,3.467c0,1.403-0.338,2.576-1.016,3.519c-0.677,0.943-1.698,1.656-3.063,2.14l5.095,9.488h-4.476
		l-4.836-9.038h-0.375v9.038h-4.093V0.536z M137.52,8.878h1.284c1.301,0,2.198-0.17,2.688-0.51c0.491-0.339,0.737-0.902,0.737-1.688
		c0-0.466-0.122-0.871-0.365-1.215s-0.569-0.592-0.977-0.743c-0.407-0.15-1.156-0.226-2.244-0.226h-1.124V8.878z"/>
	<path fill="#237c8a" d="M157.08,0.536h4.152l8.272,21.34h-4.255l-1.682-4.395h-8.776l-1.75,4.395h-4.255L157.08,0.536z M159.182,6.194
		l-2.886,7.326h5.754L159.182,6.194z"/>
	<path fill="#237c8a" d="M170.55,0.536h11.887V4.54h-3.919v17.336h-4.152V4.54h-3.816V0.536z"/>
	<path fill="#237c8a" d="M185.259,0.536H197v3.975h-7.676V8.37H197v3.902h-7.676v5.614H197v3.99h-11.741V0.536z"/>
	<path fill="#237c8a" d="M22.221,31.357h152.558"/>
	<path fill="#237c8a" d="M174.779,32.931H22.221v-3.148h152.558V32.931z"/>
	<path fill="#237c8a" d="M16.903,40.326h5.451v0.924h-4.5v2.957h4.461v0.924h-4.461v3.708h4.461v0.923h-5.412V40.326z"/>
	<path fill="#237c8a" d="M28.544,40.326l4.436,9.436h-1.027l-1.496-3.104H26.36l-1.482,3.104h-1.061l4.494-9.436H28.544z M28.424,42.332
		l-1.629,3.416h3.251L28.424,42.332z"/>
	<path fill="#237c8a" d="M34.171,41.25v-0.924h5.211v0.924h-2.121v8.512h-0.97V41.25H34.171z"/>
	<path fill="#237c8a" d="M42.262,48.351c0.22,0,0.408,0.077,0.563,0.231c0.155,0.154,0.233,0.343,0.233,0.565
		c0,0.218-0.078,0.405-0.233,0.561s-0.343,0.234-0.563,0.234c-0.219,0-0.407-0.078-0.562-0.234s-0.233-0.343-0.233-0.561
		c0-0.222,0.078-0.411,0.233-0.565C41.855,48.428,42.043,48.351,42.262,48.351z"/>
	<path fill="#237c8a" d="M54.4,40.326h0.95v8.525h3.66v0.911H54.4V40.326z"/>
	<path fill="#237c8a" d="M65.708,40.089c1.441,0,2.646,0.477,3.617,1.43c0.97,0.954,1.456,2.128,1.456,3.522
		c0,1.381-0.484,2.553-1.452,3.516C68.359,49.519,67.178,50,65.785,50c-1.41,0-2.601-0.479-3.571-1.437
		c-0.971-0.958-1.456-2.117-1.456-3.477c0-0.906,0.221-1.747,0.663-2.521c0.442-0.774,1.044-1.38,1.808-1.819
		C63.993,40.308,64.819,40.089,65.708,40.089z M65.75,41.005c-0.704,0-1.371,0.183-2.001,0.546c-0.63,0.364-1.123,0.854-1.477,1.47
		c-0.354,0.617-0.531,1.304-0.531,2.062c0,1.121,0.392,2.068,1.175,2.84c0.784,0.773,1.729,1.159,2.833,1.159
		c0.738,0,1.421-0.178,2.05-0.533s1.118-0.841,1.47-1.458c0.352-0.616,0.528-1.301,0.528-2.055c0-0.749-0.176-1.426-0.528-2.032
		c-0.352-0.605-0.848-1.09-1.486-1.454C67.144,41.188,66.466,41.005,65.75,41.005z"/>
	<path fill="#237c8a" d="M72.625,40.326h1.035l3.152,7.291l3.204-7.291h1.035l-4.138,9.436h-0.207L72.625,40.326z"/>
	<path fill="#237c8a" d="M83.315,40.326h5.45v0.924h-4.5v2.957h4.462v0.924h-4.462v3.708h4.462v0.923h-5.412V40.326z"/>
	<path fill="#237c8a" d="M91.917,48.351c0.22,0,0.407,0.077,0.562,0.231c0.155,0.154,0.232,0.343,0.232,0.565
		c0,0.218-0.077,0.405-0.232,0.561s-0.342,0.234-0.562,0.234c-0.22,0-0.407-0.078-0.562-0.234s-0.233-0.343-0.233-0.561
		c0-0.222,0.078-0.411,0.233-0.565C91.51,48.428,91.697,48.351,91.917,48.351z"/>
	<path fill="#237c8a" d="M103.621,49.762l1.362-9.436h0.155l3.866,7.743l3.829-7.743h0.152l1.369,9.436h-0.932l-0.94-6.749l-3.363,6.749
		h-0.243l-3.402-6.8l-0.935,6.8H103.621z"/>
	<path fill="#237c8a" d="M116.749,40.326h0.95v9.436h-0.95V40.326z"/>
	<path fill="#237c8a" d="M129.398,42.077l-0.75,0.572c-0.414-0.535-0.911-0.94-1.491-1.216s-1.217-0.414-1.91-0.414
		c-0.759,0-1.461,0.181-2.108,0.542c-0.646,0.362-1.147,0.847-1.503,1.457c-0.356,0.609-0.533,1.295-0.533,2.056
		c0,1.151,0.397,2.111,1.192,2.881c0.795,0.769,1.799,1.154,3.01,1.154c1.332,0,2.446-0.517,3.343-1.552l0.75,0.564
		c-0.475,0.599-1.066,1.062-1.775,1.389c-0.709,0.327-1.501,0.49-2.376,0.49c-1.664,0-2.977-0.55-3.938-1.649
		c-0.806-0.928-1.209-2.049-1.209-3.361c0-1.382,0.488-2.544,1.464-3.487c0.976-0.943,2.199-1.414,3.669-1.414
		c0.888,0,1.689,0.174,2.405,0.522C128.354,40.96,128.94,41.448,129.398,42.077z"/>
	<path fill="#237c8a" d="M131.955,40.326h0.95v3.958h4.843v-3.958h0.951v9.436h-0.951v-4.554h-4.843v4.554h-0.95V40.326z"/>
	<path fill="#237c8a" d="M141.539,40.326h0.95v9.436h-0.95V40.326z"/>
	<path fill="#237c8a" d="M154.505,41.91l-0.737,0.693c-0.53-0.518-1.111-0.91-1.743-1.177c-0.631-0.267-1.246-0.4-1.846-0.4
		c-0.746,0-1.456,0.181-2.13,0.545c-0.675,0.363-1.198,0.856-1.568,1.479s-0.556,1.279-0.556,1.972c0,0.711,0.191,1.386,0.576,2.024
		c0.383,0.64,0.913,1.142,1.59,1.508c0.677,0.366,1.418,0.548,2.225,0.548c0.978,0,1.806-0.273,2.482-0.821
		c0.677-0.547,1.078-1.257,1.203-2.13h-3.032v-0.912h4.099c-0.009,1.459-0.445,2.617-1.309,3.474
		c-0.865,0.857-2.021,1.287-3.469,1.287c-1.758,0-3.151-0.594-4.176-1.784c-0.789-0.915-1.183-1.974-1.183-3.175
		c0-0.894,0.226-1.726,0.678-2.495c0.453-0.77,1.074-1.372,1.862-1.806c0.789-0.435,1.681-0.651,2.677-0.651
		c0.806,0,1.564,0.144,2.275,0.433C153.134,40.81,153.828,41.273,154.505,41.91z"/>
	<path fill="#237c8a" d="M161.425,40.326l4.436,9.436h-1.027l-1.496-3.104h-4.097l-1.482,3.104h-1.061l4.494-9.436H161.425z
		 M161.305,42.332l-1.629,3.416h3.251L161.305,42.332z"/>
	<path fill="#237c8a" d="M168.003,49.762v-9.436h0.207l6.33,7.233v-7.233h0.937v9.436h-0.213l-6.278-7.145v7.145H168.003z"/>
	<path fill="#237c8a" d="M179.302,48.351c0.22,0,0.407,0.077,0.562,0.231c0.156,0.154,0.233,0.343,0.233,0.565
		c0,0.218-0.077,0.405-0.233,0.561c-0.155,0.156-0.342,0.234-0.562,0.234s-0.408-0.078-0.563-0.234
		c-0.155-0.156-0.232-0.343-0.232-0.561c0-0.222,0.078-0.411,0.232-0.565C178.894,48.428,179.082,48.351,179.302,48.351z"/>
</svg>
