<svg version="1.1" id="Layer_1" xmlns="http://www.w3.org/2000/svg" xmlns:xlink="http://www.w3.org/1999/xlink" x="0px" y="0px"
		 width="178px" height="20px" viewBox="0 0 178 20" enable-background="new 0 0 178 20" xml:space="preserve">
	<path fill="#237c8a" d="M3.365,0.479h3.604l4.505,13.281L16.02,0.479h3.602l3.26,19.042h-3.577L17.221,7.495l-4.128,12.025h-3.26
		L5.74,7.495L3.606,19.521H0L3.365,0.479z"/>
	<path fill="#237c8a" d="M25.563,0.479h3.673v19.042h-3.673V0.479z"/>
	<path fill="#237c8a" d="M31.482,0.479h10.74v3.573h-3.541v15.469H34.93V4.052h-3.448V0.479z"/>
	<path fill="#237c8a" d="M44.277,0.479h10.74v3.573h-3.541v15.469h-3.752V4.052h-3.448V0.479z"/>
	<path fill="#237c8a" d="M57.567,0.479h10.609v3.547H61.24v3.443h6.936v3.482H61.24v5.01h6.936v3.56H57.567V0.479z"/>
	<path fill="#237c8a" d="M71.637,0.479h3.548l8.315,12.53V0.479H87.2v19.042h-3.558L75.336,7.029v12.491h-3.699V0.479z"/>
	<path fill="#237c8a" d="M117.07,3.826l-2.587,2.417c-1.76-1.823-3.74-2.734-5.94-2.734c-1.857,0-3.421,0.622-4.692,1.866
		c-1.272,1.244-1.908,2.778-1.908,4.601c0,1.27,0.282,2.397,0.845,3.382c0.563,0.985,1.36,1.758,2.389,2.319
		c1.03,0.561,2.174,0.842,3.432,0.842c1.073,0,2.055-0.197,2.943-0.59s1.866-1.107,2.931-2.145l2.507,2.564
		c-1.436,1.373-2.792,2.325-4.069,2.855c-1.277,0.531-2.734,0.797-4.373,0.797c-3.021,0-5.494-0.939-7.418-2.816
		s-2.887-4.283-2.887-7.217c0-1.898,0.438-3.585,1.315-5.061c0.876-1.476,2.131-2.662,3.765-3.56C104.958,0.449,106.717,0,108.602,0
		c1.603,0,3.146,0.332,4.63,0.995S115.996,2.602,117.07,3.826z"/>
	<path fill="#237c8a" d="M120.558,0.479h3.919c2.146,0,3.675,0.188,4.585,0.563c0.911,0.376,1.643,0.999,2.197,1.871
		s0.832,1.903,0.832,3.093c0,1.252-0.306,2.298-0.918,3.14c-0.612,0.842-1.535,1.478-2.768,1.909l4.604,8.466h-4.044l-4.37-8.064
		h-0.339v8.064h-3.699V0.479z M124.257,7.922h1.16c1.176,0,1.986-0.152,2.429-0.455c0.443-0.303,0.666-0.805,0.666-1.506
		c0-0.416-0.11-0.777-0.329-1.084c-0.22-0.308-0.514-0.528-0.883-0.663c-0.369-0.135-1.044-0.202-2.028-0.202h-1.015V7.922z"/>
	<path fill="#237c8a" d="M141.93,0.479h3.752l7.474,19.042h-3.844l-1.521-3.922h-7.93l-1.581,3.922h-3.844L141.93,0.479z M143.829,5.527
		l-2.607,6.537h5.199L143.829,5.527z"/>
	<path fill="#237c8a" d="M154.101,0.479h10.741v3.573h-3.541v15.469h-3.751V4.052h-3.449V0.479z"/>
	<path fill="#237c8a" d="M167.391,0.479H178v3.547h-6.936v3.443H178v3.482h-6.936v5.01H178v3.56h-10.608V0.479z"/>
</svg>
